<svg width="37" height="41" viewBox="0 0 37 41" fill="none" xmlns="http://www.w3.org/2000/svg">
<path d="M32.048 14.1382C32.4468 14.1382 32.8086 14.3122 33.0945 14.6062C33.361 14.9202 33.4952 15.3102 33.4563 15.7222C33.4563 15.8582 32.3904 29.3381 31.7815 35.012C31.4003 38.494 29.1556 40.608 25.7887 40.666C23.1997 40.724 20.6692 40.744 18.1775 40.744C15.5321 40.744 12.9451 40.724 10.434 40.666C7.17985 40.588 4.93326 38.436 4.57147 35.012C3.94515 29.3181 2.89868 15.8582 2.87923 15.7222C2.85978 15.3102 2.99204 14.9202 3.26047 14.6062C3.525 14.3122 3.90624 14.1382 4.30693 14.1382H32.048ZM22.2993 0.743958C24.0674 0.743958 25.6469 1.97795 26.104 3.73793L26.4308 5.19791C26.6953 6.3879 27.7262 7.22989 28.9127 7.22989H34.7441C35.5222 7.22989 36.1699 7.87589 36.1699 8.69788V9.45787C36.1699 10.2599 35.5222 10.9259 34.7441 10.9259H1.5976C0.817611 10.9259 0.169891 10.2599 0.169891 9.45787V8.69788C0.169891 7.87589 0.817611 7.22989 1.5976 7.22989H7.42902C8.61359 7.22989 9.6445 6.3879 9.91098 5.19991L10.2164 3.83593C10.691 1.97795 12.2529 0.743958 14.0404 0.743958H22.2993Z" fill="#200E32"/>
</svg>
